<?xml version="1.0" encoding="UTF-8" standalone="no"?><!DOCTYPE svg PUBLIC "-//W3C//DTD SVG 1.1//EN" "http://www.w3.org/Graphics/SVG/1.1/DTD/svg11.dtd"><svg width="100%" height="100%" viewBox="0 0 120 120" version="1.1" xmlns="http://www.w3.org/2000/svg" xmlns:xlink="http://www.w3.org/1999/xlink" xml:space="preserve" xmlns:serif="http://www.serif.com/" style="fill-rule:evenodd;clip-rule:evenodd;stroke-linejoin:round;stroke-miterlimit:2;"><g><path d="M14.759,115.84l35.725,-52.921c-6.402,-1.14 -12.233,-3.51 -17.493,-7.109c-5.26,-3.599 -9.463,-8.341 -12.609,-14.226c-3.146,-5.886 -4.721,-12.772 -4.724,-20.66l-0.007,-17.272c3.758,-2.053 8.003,-3.324 12.516,-3.597l0.01,22.75c0.002,5.144 1.262,9.973 3.778,14.487c2.517,4.514 6.033,8.228 10.55,11.141c4.517,2.913 9.69,4.425 15.52,4.537l35.329,-52.785c4.2,0.468 8.139,1.805 11.633,3.826l-33.759,49.811c12.118,1.252 21.293,5.621 27.526,13.106c6.233,7.485 9.352,16.543 9.356,27.174l0.008,19.804c-3.574,2.714 -7.774,4.645 -12.343,5.538l-0.011,-26.365c-0.003,-8.345 -2.807,-15.231 -8.411,-20.658c-5.604,-5.427 -13.492,-8.196 -23.666,-8.306l-37.36,55.663c-4.182,-0.511 -8.1,-1.885 -11.569,-3.937Z" style="fill:#fff;"/><path d="M14.759,115.84c-8.831,-5.224 -14.759,-14.845 -14.759,-25.84l0,-60c0,-11.362 6.33,-21.257 15.652,-26.348l0.007,17.272c0.003,7.887 1.578,14.774 4.724,20.66c3.146,5.886 7.349,10.628 12.609,14.226c5.26,3.599 11.091,5.968 17.493,7.109l-35.725,52.921Z" style="fill:#000127;"/><path d="M28.168,0.055c0.606,-0.037 1.217,-0.055 1.832,-0.055l60,0c1.134,0 2.253,0.063 3.354,0.186l-35.329,52.785c-5.83,-0.112 -11.003,-1.624 -15.52,-4.537c-4.517,-2.913 -8.033,-6.627 -10.55,-11.141c-2.517,-4.514 -3.776,-9.343 -3.778,-14.487l-0.01,-22.75Z" style="fill:#000127;"/><path d="M104.987,4.011c8.971,5.188 15.013,14.889 15.013,25.989l0,60c0,9.753 -4.664,18.425 -11.881,23.905l-0.008,-19.804c-0.004,-10.631 -3.123,-19.689 -9.356,-27.174c-6.233,-7.485 -15.408,-11.853 -27.526,-13.106l33.759,-49.811Z" style="fill:#000127;"/><path d="M95.776,119.444c-1.869,0.365 -3.8,0.556 -5.776,0.556l-60,0c-1.243,-0 -2.468,-0.076 -3.671,-0.223l37.36,-55.663c10.174,0.11 18.062,2.879 23.666,8.306c5.604,5.427 8.407,12.314 8.411,20.658l0.011,26.365Z" style="fill:#000127;"/></g></svg>