<?xml version="1.0" encoding="UTF-8" standalone="no"?><!DOCTYPE svg PUBLIC "-//W3C//DTD SVG 1.1//EN" "http://www.w3.org/Graphics/SVG/1.1/DTD/svg11.dtd"><svg width="100%" height="100%" viewBox="0 0 120 120" version="1.1" xmlns="http://www.w3.org/2000/svg" xmlns:xlink="http://www.w3.org/1999/xlink" xml:space="preserve" xmlns:serif="http://www.serif.com/" style="fill-rule:evenodd;clip-rule:evenodd;stroke-linejoin:round;stroke-miterlimit:2;"><path d="M14.845,115.891c-8.879,-5.212 -14.845,-14.86 -14.845,-25.891l0,-60c0,-10.754 5.671,-20.195 14.183,-25.491l0.006,14.869c0.003,8.217 1.629,15.391 4.876,21.523c3.247,6.132 7.585,11.072 13.014,14.821c5.429,3.749 11.447,6.218 18.055,7.406l-35.289,52.763Z" style="fill:url(#_Linear1);"/><path d="M27.101,0.139c0.954,-0.092 1.921,-0.139 2.899,-0.139l60,0c0.95,0 1.891,0.044 2.819,0.131l-34.901,52.633c-6.017,-0.117 -11.357,-1.692 -16.019,-4.727c-4.662,-3.035 -8.291,-6.904 -10.889,-11.606c-2.598,-4.703 -3.898,-9.734 -3.9,-15.093l-0.009,-21.199Z" style="fill:url(#_Linear2);"/><path d="M104.908,3.965c9.015,5.177 15.092,14.902 15.092,26.035l0,60c0,9.059 -4.024,17.185 -10.38,22.688l-0.007,-17.073c-0.005,-11.075 -3.224,-20.512 -9.657,-28.309c-6.434,-7.798 -15.904,-12.349 -28.411,-13.653l33.363,-49.686Z" style="fill:url(#_Linear3);"/><path d="M96.88,119.206c-2.21,0.519 -4.513,0.794 -6.88,0.794l-60,0c-1.054,0 -2.095,-0.054 -3.121,-0.161l36.883,-55.466c10.501,0.115 18.643,2.999 24.427,8.653c5.784,5.654 8.677,12.828 8.681,21.522l0.01,24.658Z" style="fill:url(#_Linear4);"/><defs><linearGradient id="_Linear1" x1="0" y1="0" x2="1" y2="0" gradientUnits="userSpaceOnUse" gradientTransform="matrix(158.791222,-175.650927,175.650927,158.791222,-31.300193,161.51503)"><stop offset="0" style="stop-color:#01e7ff;stop-opacity:1"/><stop offset="1" style="stop-color:#1819ff;stop-opacity:1"/></linearGradient><linearGradient id="_Linear2" x1="0" y1="0" x2="1" y2="0" gradientUnits="userSpaceOnUse" gradientTransform="matrix(158.791222,-175.650927,175.650927,158.791222,-31.300193,161.51503)"><stop offset="0" style="stop-color:#01e7ff;stop-opacity:1"/><stop offset="1" style="stop-color:#1819ff;stop-opacity:1"/></linearGradient><linearGradient id="_Linear3" x1="0" y1="0" x2="1" y2="0" gradientUnits="userSpaceOnUse" gradientTransform="matrix(158.791222,-175.650927,175.650927,158.791222,-31.300193,161.51503)"><stop offset="0" style="stop-color:#01e7ff;stop-opacity:1"/><stop offset="1" style="stop-color:#1819ff;stop-opacity:1"/></linearGradient><linearGradient id="_Linear4" x1="0" y1="0" x2="1" y2="0" gradientUnits="userSpaceOnUse" gradientTransform="matrix(158.791222,-175.650927,175.650927,158.791222,-31.300193,161.51503)"><stop offset="0" style="stop-color:#01e7ff;stop-opacity:1"/><stop offset="1" style="stop-color:#1819ff;stop-opacity:1"/></linearGradient></defs></svg>